<svg width="59" height="48" viewBox="0 0 59 48" fill="none" xmlns="http://www.w3.org/2000/svg">
<path d="M5.625 19C2.52338 19 0 21.243 0 24C0 26.757 2.52338 29 5.625 29H6V19H5.625Z" fill="#E8E8E8"/>
<path d="M0 24C0.0337591 26.7621 2.54344 29 5.6249 29H6V24H0Z" fill="#BABABA"/>
<path d="M54 19V29C57.0846 29 59 26.5862 59 24C59 21.4388 57.1115 19 54 19Z" fill="#E8E8E8"/>
<path d="M54 24V29C57.0632 29 58.9728 26.5939 59 24H54Z" fill="#BABABA"/>
<path d="M38 19H21V29H38V19Z" fill="#E8E8E8"/>
<path d="M38 24H21V29H38V24Z" fill="#BABABA"/>
<path d="M6.76471 10C5.79012 10 5 10.7771 5 11.7355V36.2645C5 37.2229 5.79012 38 6.76471 38H13V10H6.76471Z" fill="#F87878"/>
<path d="M5 24V36.2573C5 37.2197 5.79012 38 6.76471 38H13V24H5Z" fill="#F87878"/>
<path d="M20.3333 42H13.6667C12.7462 42 12 41.23 12 40.2803V7.71975C12 6.76999 12.7462 6 13.6667 6H20.3333C21.2538 6 22 6.76999 22 7.71975V40.2803C22 41.23 21.2538 42 20.3333 42Z" fill="#F41E1E"/>
<path d="M12 24V40.2748C12 41.2276 12.7462 42 13.6667 42H20.3333C21.2538 42 22 41.2276 22 40.2748V24H12Z" fill="#F41E1E"/>
<path d="M53.209 10H47V38H53.209C54.1981 38 55 37.2229 55 36.2645V11.7355C55 10.7771 54.1981 10 53.209 10Z" fill="#F87878"/>
<path d="M47 24V38H53.209C54.1981 38 55 37.2197 55 36.2573V24H47Z" fill="#F87878"/>
<path d="M45.3333 42H38.6667C37.7462 42 37 41.23 37 40.2803V7.71975C37 6.76999 37.7462 6 38.6667 6H45.3333C46.2538 6 47 6.76999 47 7.71975V40.2803C47 41.23 46.2538 42 45.3333 42Z" fill="#F41E1E"/>
<path d="M37 24V40.2748C37 41.2276 37.7462 42 38.6667 42H45.3333C46.2538 42 47 41.2276 47 40.2748V24H37Z" fill="#F41E1E"/>
</svg>
